<?xml version="1.0" standalone="no"?>
<!DOCTYPE svg PUBLIC "-//W3C//DTD SVG 20010904//EN"
 "http://www.w3.org/TR/2001/REC-SVG-20010904/DTD/svg10.dtd">
<svg version="1.0" xmlns="http://www.w3.org/2000/svg"
 width="110.000000pt" height="110.000000pt" viewBox="0 0 110.000000 110.000000"
 preserveAspectRatio="xMidYMid meet">
<metadata>
Created by potrace 1.11, written by Peter Selinger 2001-2013
</metadata>
<g transform="translate(0.000000,110.000000) scale(0.100000,-0.100000)"
fill="#000000" stroke="none">
<path d="M219 989 c-133 -22 -210 -159 -164 -289 11 -32 15 -88 15 -220 0
-165 2 -180 23 -220 42 -80 42 -80 450 -80 402 0 407 1 449 69 21 33 23 49 26
221 2 127 8 198 18 228 37 111 -7 221 -108 273 -37 19 -61 20 -357 22 -175 1
-334 -1 -352 -4z"/>
</g>
</svg>
